<svg xmlns="http://www.w3.org/2000/svg" xmlns:xlink="http://www.w3.org/1999/xlink" viewBox="0 0 360 223">
  <defs>
    <symbol overflow="visible" id="a">
      <path d="M15.5 1.7a55.6 55.6 0 0 0-9.8-4l1-1.3L11.2-2l4.3-4.2H5.4l1.5-4H1.3v-1.6h6l1-2.6H3v-1.5h5.6l.6-2.5h1.8l-.8 2.5h8.5v1.5H9.9l-.8 2.6h11.3v1.6H8.6l-.8 2.4H17.5l1.3.7-5.9 5.7c1.6.7 2.8 1.2 3.6 1.7zm0 0"/>
    </symbol>
    <symbol overflow="visible" id="b">
      <path d="M3 1.5L1.6.3c1.3-1.7 2.7-4 4.2-7l1.2 1a88.8 88.8 0 0 1-4 7.2zM6.7 1V-.6H13v-5.6H8.2v-1.6h5v-4.9H7.2v-1.5h13.2v1.5h-5.7v5h5v1.5h-5v5.6h6.3V1zM5-8.5C4.2-9.2 2.8-10 1-11l.9-1.2c1.7.7 3 1.5 4 2.2zm8.9-5.8c-.4-1.1-1-2.3-1.8-3.7l1.4-.5c1 1.4 1.6 2.6 2 3.6zm-7.6-.2c-1-.8-2.4-1.6-4.1-2.5L3-18c1.7.7 3.1 1.5 4.1 2.2zm0 0"/>
    </symbol>
    <symbol overflow="visible" id="c">
      <path d="M2.3 1.7C2 1.4 1.5 1.1 1 .9c.8-1.4 1.3-3.3 1.6-5.6.2-1.5.3-3.4.3-5.6v-6h8.5l-.9-1.8 1.6-.4c.5.8.9 1.5 1.2 2.3h7.6v1.5H4.4v4.4c0 5.4-.7 9.4-2 12zm17.9 0c-2.9-.3-5.4-1-7.6-1.9C10.5.6 8 1.2 5 1.6 4.8 1 4.5.6 4.2.2 6.8-.1 9.1-.5 11-1.1a11 11 0 0 1-3.5-3l.8-.4h-3v-1.3h12.5L18-6l1 .6A11 11 0 0 1 14.5-1c1.9.6 4 1 6.6 1.3-.4.3-.7.8-1 1.4zm-7.5-3.5c1.7-.7 3-1.6 3.9-2.7H9c.8 1 2 2 3.7 2.7zM8.5-7.2V-11H5v-1.3h3.5v-2h1.6v2h5.3v-2H17v2h3.5v1.3H17v3.7zm1.6-1.4h5.3v-2.3h-5.3zm0 0"/>
    </symbol>
    <symbol overflow="visible" id="d">
      <path d="M16 1.7a5 5 0 0 0-.5-1.6h2.8c.3 0 .4-.2.4-.5V-16h-10V1.7H7.2v-19.2h13.1V-.4c0 .5 0 .9-.2 1.2l-.6.6-1.3.2-2.1.1zM3 1.3L1.4.2c1.4-2.2 2.7-4.5 3.8-7l1.3 1.1C5.3-3 4.1-.7 3 1.3zM10.6-2v-8.3h6v7H12V-2zM12-4.8h3.4v-4H12zm-7-4C4-9.3 2.6-10.1.8-11l.8-1.2c1.9.8 3.2 1.5 4 2.1zm5-3.7v-1.3h7.5v1.3zm-4.2-2A19 19 0 0 0 2-17L3-18c1.7.7 3 1.4 3.9 2.2zm0 0"/>
    </symbol>
    <symbol overflow="visible" id="e">
      <path d="M8 1.6A5 5 0 0 0 7.4.2a33.1 33.1 0 0 0 3-.1v-3.9H3.6v-1.4h14.8v1.4H12v3.7c0 .4 0 .7-.2 1 0 .2-.3.3-.6.4-.4.2-1.5.3-3.2.3zm-5.5-.3L1.4.1c1-.4 2-.9 2.8-1.5 1-.6 1.7-1.2 2.2-1.9l1.5.5C7.3-2 6.5-1.2 5.5-.5l-3 1.8zm16.9-.2A41 41 0 0 0 14-2.4l1-1C17.4-2.1 19.2-1 20.6 0zM1.8-4.6c-.2-.5-.5-.8-.8-1.2a14 14 0 0 0 3.7-1.8A11 11 0 0 0 3.1-9l1-.6 1.7 1.3 1.1-1-1.7-1.3.8-.7 1.7 1.1c.5-.5 1-1.1 1.4-2H5.9A14 14 0 0 1 2-9c-.2-.5-.5-.8-.9-1 1.2-.6 2.3-1.4 3.2-2.3.8-.7 1.4-1.6 1.9-2.4l1.4.2-.3.6-.4.6h2.9l.3-.1.9.5c-.6 1.7-1.6 3.2-3 4.6h6.7c-1.7-1.6-3-3.6-3.9-6l1.3-.4.6 1.4h5.6l.3-.1 1 .6c-1 1.5-2 2.9-3.1 4 1.3 1 2.9 1.8 4.8 2.2l-1 1.3c-2-.5-3.8-1.4-5.3-2.7V-7H7.4v-1a15.6 15.6 0 0 1-5.6 3.3zm13.6-5l2-2.4h-4.1c.6 1 1.3 1.7 2 2.4zM1.6-13.2v-3.4h8.8L9.6-18l1.6-.4c.4.7.8 1.3 1 2h8.2v3.3h-1.6v-2H3v2zm0 0"/>
    </symbol>
    <symbol overflow="visible" id="f">
      <path d="M2.5 1.8c-.4-.6-.8-1-1.2-1.3 2.7-1.6 4.6-3.6 6-6 .9-1.9 1.4-4 1.7-6.5H2v-1.6h7v-4.8h1.7v4.8H20v.8L19-3c-.3 2-.7 3.2-1.2 3.7l-.8.7-1 .2h-3.6c0-.7-.2-1.2-.5-1.7l3.4.1c.5 0 .8 0 1-.3.5-.4.8-1.4 1-3.2.3-1.8.5-4.6.7-8.4h-7.5A19 19 0 0 1 9-4.9a16.7 16.7 0 0 1-6.4 6.7zm0 0"/>
    </symbol>
  </defs>
  <path d="M7.2 200.8H102.2l.4-.1H107.4l.5-.1H110.7l.2-.1H112.9l.5-.1h1.3l.5-.1h1.1l.7-.1h.9l.1-.1h.8l.9-.2h.8l.9-.1h.4l.4-.1.9-.1h.4l.4-.2h.8l1.7-.4h.5l.4-.1 1-.2h.2l.2-.1.5-.1.9-.3h.4l.5-.2.9-.2 1.8-.6h.2l.2-.2.5-.1.8-.3h.1l.1-.1h.2l.5-.3.8-.3.2-.1.2-.1.5-.2.8-.4 1.7-.9h.1l.2-.1.2-.1.4-.3 1-.5 1.8-1.2.1-.1.1-.1.3-.2.4-.3 1-.7 1.8-1.5h.1l.1-.2.3-.2.4-.4 1-.8 1.7-1.7.1-.2.4-.3.4-.5 1-1 1.7-2 .3-.3.6-.8.8-1 1.7-2.2 3.4-4.9.1-.1.1-.2.3-.4.4-.7 1-1.4 1.8-3 3.6-6.3 6.9-12.9 6.7-13.1 7.3-13.7v-.2l.2-.2.2-.3.4-.8.8-1.5 1.7-2.8 3.4-5.5.2-.1v-.2l.3-.3.5-.7.9-1.4 1.8-2.5.1-.2.1-.2.3-.3.4-.6 1-1.2 1.8-2.2.1-.1.1-.2.2-.2.5-.5.9-1 1.8-2h.1l.1-.1.3-.3.4-.4 1-.8 1.7-1.6.1-.1h.1l.2-.3.5-.3.8-.7 1.7-1.2.2-.1.2-.2.4-.2.9-.6 1.7-1h.2l.2-.2.5-.3.9-.4h.1l.1-.1.2-.1.5-.3 1-.4h.1l.3-.2.4-.2 1-.3 1.8-.7h.2l.2-.1.4-.1.9-.3h.2l.2-.1.4-.1.9-.3h.4l.4-.2.9-.2 1.7-.3h.4l.4-.2h.9l.2-.1h.2l.4-.1.8-.1h.2l.2-.1h.5l.8-.2 1.7-.1h.4l.5-.1.9-.1h.9l.9-.1h.5l.4-.1h1.1l.7-.1H247.1l.8-.1h2.1l.5-.1h3.4l1-.1H266.2l.9-.1h84.6" fill="none" stroke-width="1.6" stroke-linecap="square" stroke="#5e81b5" stroke-miterlimit="3.3"/>
  <path d="M7.2 11h69.5l.9.1H100.5l.4.1h4.7l.5.1h2.8l.1.1h2.1l.5.1h1.1l.2.1h1.4l.1.1h.8l.9.1h.4l.5.1.9.1h.4l.5.1.9.1h.4l.4.1.9.2h.8l.9.2h.2l.2.1h.4l.8.3 1.7.3h.1l.1.1h.3l.4.2 1 .2h.2l.2.2.5.1.9.3.4.1.5.2.9.3 1.8.8h.1l.1.1.2.1.5.2.8.4.2.1.2.1.5.3.8.4.2.2h.2l.5.4.8.5 1.7 1.2h.1l.2.1.2.2.4.4 1 .7 1.8 1.6h.1l.1.2.3.2.4.5 1 .9 1.8 2 .2.2.3.3.4.5 1 1 1.7 2.4.3.3.2.4.4.6 1 1.3 1.7 2.8.3.3.2.3.4.7.8 1.4 1.7 3 3.4 6.5.1.2.1.2.3.5.4 1 1 1.8 1.8 4 3.6 8.5 6.9 17.1 6.7 17.5 7.3 18.2v.3l.2.2.2.5.4 1 .8 2 1.7 3.8 3.4 7.3.2.2v.2l.3.5.5.9.9 1.8 1.8 3.4.2.4.3.4.4.8 1 1.6 1.8 3 .1.2.1.2.2.3.5.7.9 1.3 1.8 2.5.1.2.4.4.4.6 1 1.1 1.7 2.1.1.2h.1l.2.3.5.5.8.8 1.7 1.7.8.7.9.7 1.7 1.3v.1l.2.1.2.2.5.3.9.6.1.1h.1l.2.2.5.3 1 .6h.1l.3.2.4.3 1 .4 1.8 1h.4l.4.3.9.3h.2l.2.2.4.1.9.3.2.1h.2l.4.2.9.3 1.7.4h.2l.2.1.4.1.9.2h.2l.2.1h.4l.8.2h.2l.2.1h.5l.8.2 1.7.3H239.9l.9.2h.9l.9.2h.9l1 .1h.8l1 .1h.4l.4.1h1.7l.8.1H251.3l.4.1H255.1l.2.1H262.9l.9.1h88" fill="none" stroke-width="1.6" stroke-linecap="square" stroke="#e19c24" stroke-miterlimit="3.3"/>
  <use xlink:href="#a" x="82.7" y="148.4"/>
  <use xlink:href="#b" x="104.7" y="148.4"/>
  <use xlink:href="#c" x="126.7" y="148.4"/>
  <path d="M45 194.8c-2.2-36 8.1-54 31.1-54" fill="none" stroke-width="2" stroke-linecap="square" stroke="#000" stroke-miterlimit="3.3"/>
  <g>
    <use xlink:href="#d" x="249.9" y="124.9"/>
    <use xlink:href="#e" x="271.9" y="124.9"/>
    <use xlink:href="#f" x="293.9" y="124.9"/>
  </g>
  <path d="M282.9 166.8V131" fill="none" stroke-width="2" stroke-linecap="square" stroke="#000" stroke-miterlimit="3.3"/>
</svg>
